<?xml version="1.0" standalone="no"?>
<!DOCTYPE svg PUBLIC "-//W3C//DTD SVG 1.1//EN" "http://www.w3.org/Graphics/SVG/1.1/DTD/svg11.dtd" >
<svg xmlns="http://www.w3.org/2000/svg">
<metadata></metadata>
<defs>
<font id="proxima_nova_extra_condensSBd" horiz-adv-x="823" >
<font-face units-per-em="2048" ascent="1618" descent="-430" />
<missing-glyph horiz-adv-x="337" />
<glyph unicode="&#xfb01;" horiz-adv-x="886" d="M39 821v168h94v129q0 126 60.5 197t162.5 71q73 0 125 -28l-37 -156q-12 15 -41 15q-35 0 -56 -26.5t-21 -72.5v-129h129v-168h-129v-821h-193v821h-94zM565 1239q0 51 36.5 87t86.5 36q51 0 87 -36t36 -87t-36 -86t-87 -35q-50 0 -86.5 35.5t-36.5 85.5zM592 0v989h192 v-989h-192z" />
<glyph unicode="&#xfb02;" horiz-adv-x="886" d="M39 821v168h94v129q0 126 60.5 197t162.5 71q73 0 125 -28l-37 -156q-12 15 -41 15q-35 0 -56 -26.5t-21 -72.5v-129h129v-168h-129v-821h-193v821h-94zM592 0v1366h192v-1366h-192z" />
<glyph unicode="&#xfb03;" horiz-adv-x="1374" d="M39 821v168h94v129q0 128 62.5 198t179.5 70q102 0 160 -55l-56 -151q-32 37 -69 37q-42 0 -63 -26.5t-21 -72.5v-129h129v-168h-129v-821h-193v821h-94zM528 821v168h95v129q0 126 60.5 197t162.5 71q73 0 125 -28l-37 -156q-12 15 -41 15q-35 0 -56.5 -26.5 t-21.5 -72.5v-129h129v-168h-129v-821h-192v821h-95zM1053 1239q0 51 36.5 87t86.5 36q51 0 86.5 -36t35.5 -87t-35.5 -86t-86.5 -35q-50 0 -86.5 35.5t-36.5 85.5zM1079 0v989h193v-989h-193z" />
<glyph unicode="&#xfb04;" horiz-adv-x="1374" d="M39 821v168h94v129q0 128 62.5 198t179.5 70q102 0 160 -55l-56 -151q-32 37 -69 37q-42 0 -63 -26.5t-21 -72.5v-129h129v-168h-129v-821h-193v821h-94zM528 821v168h95v129q0 126 60.5 197t162.5 71q73 0 125 -28l-37 -156q-12 15 -41 15q-35 0 -56.5 -26.5 t-21.5 -72.5v-129h129v-168h-129v-821h-192v821h-95zM1079 0v1366h193v-1366h-193z" />
<glyph horiz-adv-x="2048" />
<glyph horiz-adv-x="2048" />
<glyph unicode="&#xd;" horiz-adv-x="2048" />
<glyph unicode=" "  horiz-adv-x="337" />
<glyph unicode="&#x09;" horiz-adv-x="337" />
<glyph unicode="&#xa0;" horiz-adv-x="337" />
<glyph unicode="!" horiz-adv-x="489" d="M113 111q0 54 38.5 92.5t92.5 38.5q55 0 94 -38.5t39 -92.5t-39 -94t-94 -40q-54 0 -92.5 40t-38.5 94zM127 1366h235l-34 -960h-164z" />
<glyph unicode="&#x22;" horiz-adv-x="749" d="M102 1276q0 45 33 77.5t78 32.5t78 -32.5t33 -77.5q0 -15 -16.5 -129.5t-33.5 -222.5l-16 -107h-90q-66 426 -66 459zM426 1276q0 46 32.5 78t78.5 32t78 -32t32 -78q0 -15 -16.5 -129.5t-32.5 -222.5l-16 -107h-90q-66 426 -66 459z" />
<glyph unicode="#" horiz-adv-x="903" d="M33 362l28 130h132l88 382h-131l26 127h135l84 365h148l-84 -365h135l84 365h147l-84 -365h129l-26 -127h-133l-88 -382h135l-29 -130h-137l-84 -362h-150l88 362h-137l-84 -362h-147l84 362h-129zM342 492h131l90 382h-135z" />
<glyph unicode="$" horiz-adv-x="755" d="M33 106l96 168q39 -51 98 -79.5t119 -28.5q67 0 110.5 49.5t43.5 126.5q0 48 -18.5 91t-48.5 74t-69 64.5t-79 63t-79 69.5t-69 83t-48.5 105t-18.5 134q0 128 68 224t186 126v197h149v-187q130 -15 223 -102l-86 -164q-75 78 -182 78q-61 0 -101 -44.5t-40 -115.5 q0 -48 23.5 -91t61.5 -78t84 -71t92 -79t84 -92t61.5 -119.5t23.5 -153.5q0 -133 -65.5 -230.5t-178.5 -131.5v-197h-149v182q-183 9 -291 129z" />
<glyph unicode="%" horiz-adv-x="1187" d="M49 1047q0 147 70.5 243t187.5 96q118 0 188 -95.5t70 -243.5q0 -146 -70 -241t-188 -95q-116 0 -187 95.5t-71 240.5zM184 1047q0 -94 33 -153.5t90 -59.5t90 59.5t33 153.5q0 97 -32.5 156t-90.5 59t-90.5 -59t-32.5 -156zM264 0l565 1366h97l-568 -1366h-94zM623 311 q0 147 71 243.5t187 96.5t187 -96.5t71 -243.5q0 -145 -71 -240.5t-187 -95.5t-187 95.5t-71 240.5zM758 311q0 -94 33 -152.5t90 -58.5t90 58.5t33 152.5q0 97 -33 157t-90 60t-90 -60t-33 -157z" />
<glyph unicode="&#x26;" horiz-adv-x="872" d="M63 346q0 138 53.5 232.5t147.5 177.5q-74 183 -74 295q0 149 69.5 242t180.5 93q99 0 168.5 -79.5t69.5 -198.5q0 -41 -7.5 -79t-16 -65.5t-30.5 -61t-33 -50t-43.5 -49.5t-42.5 -42.5t-48 -43.5q37 -84 78 -158q36 -71 71 -133q32 98 66 254l155 -70 q-51 -212 -122 -354q47 -76 167 -256h-206q-10 17 -31 50t-31 50q-112 -125 -252 -125q-128 0 -208.5 99t-80.5 272zM258 356q0 -101 37 -163t94 -62q69 0 135 107q-66 113 -106 194q-25 44 -82 160q-78 -109 -78 -236zM362 1051q0 -75 33 -179q56 54 86.5 108t30.5 122 t-21 104.5t-51 36.5q-78 0 -78 -192z" />
<glyph unicode="'" horiz-adv-x="425" d="M102 1276q0 45 33 77.5t78 32.5t78 -32.5t33 -77.5q0 -15 -16.5 -129.5t-33.5 -222.5l-16 -107h-90q-66 426 -66 459z" />
<glyph unicode="(" horiz-adv-x="485" d="M96 498q0 479 209 905l139 -60q-67 -206 -102 -408t-35 -437q0 -430 137 -844l-139 -62q-209 426 -209 906z" />
<glyph unicode=")" horiz-adv-x="485" d="M41 -346l137 -62q211 424 211 906q0 481 -211 905l-137 -60q67 -206 102 -408t35 -437q0 -430 -137 -844z" />
<glyph unicode="*" horiz-adv-x="641" d="M31 979l205 104l-205 105l53 92l195 -125l-11 231h105l-11 -231l195 125l53 -92l-207 -105l207 -104l-53 -92l-195 125l11 -232h-105l11 232l-195 -125z" />
<glyph unicode="+" horiz-adv-x="780" d="M59 627v127h263v293h137v-293h262v-127h-262v-305h-137v305h-263z" />
<glyph unicode="," horiz-adv-x="493" d="M113 113q0 53 37.5 91t91.5 38q61 0 103 -47t42 -129q0 -98 -50 -186.5t-132 -145.5l-88 71q51 31 91.5 86t49.5 107q-8 -4 -31 -4q-50 0 -82 33.5t-32 85.5z" />
<glyph unicode="-" horiz-adv-x="489" d="M61 412v168h365v-168h-365z" />
<glyph unicode="." horiz-adv-x="489" d="M113 111q0 54 39.5 92.5t93.5 38.5t92.5 -38.5t38.5 -92.5t-38.5 -92.5t-92.5 -38.5t-93.5 38.5t-39.5 92.5z" />
<glyph unicode="/" horiz-adv-x="442" d="M0 -41l301 1448h141l-301 -1448h-141z" />
<glyph unicode="0" horiz-adv-x="892" d="M74 682q0 107 11.5 204.5t39.5 190t69.5 160t106 108.5t145.5 41t146 -41t107 -108.5t70 -160t40 -190.5t12 -204t-11.5 -203.5t-39.5 -191t-70 -161.5t-107.5 -109.5t-146.5 -41.5t-145.5 41.5t-106 109.5t-69.5 161.5t-39.5 191t-11.5 203.5zM293 682q0 -76 2 -132.5 t7 -120.5t15.5 -107.5t27 -81t42 -56t59.5 -18.5t59.5 18.5t42 56t27.5 81.5t16 107t7 120t2 133q0 77 -2 133.5t-7 119.5t-16 106.5t-27.5 80.5t-42 55.5t-59.5 18.5q-40 0 -68.5 -28.5t-44.5 -73t-25.5 -115.5t-12 -138t-2.5 -159z" />
<glyph unicode="1" horiz-adv-x="663" d="M14 1012l346 354h187v-1366h-213v1087l-195 -206z" />
<glyph unicode="2" horiz-adv-x="858" d="M61 1161q67 112 152 168.5t209 56.5q162 0 259 -101.5t97 -268.5q0 -135 -78.5 -295t-326.5 -533h409v-188h-688v178q219 308 312 453t124 222.5t31 158.5q0 78 -40.5 131t-106.5 53q-131 0 -211 -160z" />
<glyph unicode="3" horiz-adv-x="856" d="M49 201l150 123q79 -158 207 -158q165 0 165 221q0 61 -16 106t-43 67.5t-55.5 33t-59.5 10.5q-62 0 -80 -4v195q16 -2 72 -2q78 0 123 50t45 146q0 207 -151 207q-64 0 -114.5 -38t-82.5 -105l-143 112q56 107 148.5 164t201.5 57q160 0 256 -91.5t96 -274.5 q0 -109 -57 -199t-150 -114q96 -20 159.5 -114.5t63.5 -219.5q0 -179 -97.5 -288.5t-270.5 -109.5q-123 0 -218.5 63t-148.5 163z" />
<glyph unicode="4" horiz-adv-x="825" d="M31 324v190l407 852h252v-854h105v-188h-105v-324h-213v324h-446zM207 512h270v598z" />
<glyph unicode="5" horiz-adv-x="866" d="M66 201l145 123q71 -158 203 -158q76 0 121 76.5t45 183.5q0 129 -38.5 194.5t-111.5 65.5q-53 0 -92 -27t-78 -92l-160 45v754h637v-188h-424v-416q30 50 81 80t112 30q134 0 213.5 -115t79.5 -327q0 -194 -102 -324.5t-271 -130.5q-128 0 -213 57t-147 169z" />
<glyph unicode="6" horiz-adv-x="862" d="M74 682q0 148 25 273t74.5 222.5t131 153t187.5 55.5q88 0 162.5 -43.5t117.5 -119.5l-117 -150q-27 62 -64.5 92.5t-92.5 30.5q-54 0 -95.5 -42.5t-65 -113t-35 -153t-11.5 -172.5v-25q29 78 88 128t135 50q125 0 206 -114t81 -324q0 -125 -40 -227.5t-119.5 -165 t-184.5 -62.5q-85 0 -152 39t-109.5 104t-70.5 157t-39.5 192t-11.5 215zM291 508q10 -342 153 -342q48 0 80.5 38.5t45 94t12.5 123.5q0 140 -38.5 201t-99.5 61q-96 0 -153 -176z" />
<glyph unicode="7" horiz-adv-x="745" d="M39 1178v188h668v-147l-328 -1219h-227l321 1178h-434z" />
<glyph unicode="8" horiz-adv-x="858" d="M68 336q0 122 67.5 225t155.5 144q-84 38 -145.5 127t-61.5 208q0 86 28 154t77 109t110 62t131 21q69 0 130 -21t110 -62t77.5 -109t28.5 -154q0 -118 -62 -207.5t-145 -127.5q87 -42 155.5 -144.5t68.5 -222.5q0 -170 -95 -266.5t-268 -96.5q-176 0 -269 95.5 t-93 265.5zM283 367q0 -97 40 -149t107 -52q64 0 106 52.5t42 148.5q0 105 -56 178.5t-92 81.5q-13 -3 -36 -21.5t-48.5 -49.5t-44 -81.5t-18.5 -107.5zM295 1004q0 -51 17 -95t42.5 -71t44 -41.5t31.5 -20.5q12 6 30 20t43.5 41.5t42.5 71.5t17 95q0 91 -34 141.5t-99 50.5 q-66 0 -100.5 -50.5t-34.5 -141.5z" />
<glyph unicode="9" horiz-adv-x="862" d="M61 934q0 125 40 227.5t120 165t185 62.5t181.5 -57.5t119 -159.5t62 -223t19.5 -267q0 -148 -25 -273.5t-75 -223t-131.5 -153t-187.5 -55.5q-88 0 -162 44t-117 120l117 150q27 -62 65 -92.5t93 -30.5q51 0 91.5 41t65 110t37 153.5t12.5 176.5v25q-31 -78 -89 -128 t-134 -50q-126 0 -206.5 114t-80.5 324zM279 942q0 -139 38.5 -200.5t98.5 -61.5q96 0 153 176q-5 342 -149 342q-72 0 -106.5 -74.5t-34.5 -181.5z" />
<glyph unicode=":" horiz-adv-x="487" d="M113 111q0 54 39.5 92.5t93.5 38.5t92.5 -38.5t38.5 -92.5t-38.5 -92.5t-92.5 -38.5t-93.5 38.5t-39.5 92.5zM113 872q0 54 39.5 93t93.5 39t92.5 -39t38.5 -93t-38.5 -92.5t-92.5 -38.5t-93.5 38.5t-39.5 92.5z" />
<glyph unicode=";" horiz-adv-x="489" d="M113 119q0 53 37.5 91t91.5 38q61 0 103 -48t42 -128q0 -98 -50 -186.5t-132 -147.5l-88 74q50 30 91 84.5t50 105.5q-1 0 -13 -2t-18 -2q-50 0 -82 33.5t-32 87.5zM113 872q0 54 39.5 93t93.5 39t92.5 -39t38.5 -93q0 -53 -38.5 -92t-92.5 -39t-93.5 39t-39.5 92z" />
<glyph unicode="&#x3c;" horiz-adv-x="780" d="M59 616v138l662 293v-150l-510 -213l510 -209v-151z" />
<glyph unicode="=" horiz-adv-x="780" d="M59 424v127h662v-127h-662zM59 817v127h662v-127h-662z" />
<glyph unicode="&#x3e;" horiz-adv-x="780" d="M59 324v151l510 209l-510 213v150l662 -293v-138z" />
<glyph unicode="?" horiz-adv-x="655" d="M63 1272q108 117 261 117q131 0 211.5 -83.5t80.5 -209.5q0 -71 -24 -134t-58 -110t-67.5 -91.5t-57.5 -96t-24 -105.5q0 -55 35 -100l-164 -66q-51 68 -51 176q0 64 20.5 120t50.5 96.5t59.5 79.5t50 87.5t20.5 102.5q0 57 -36.5 102t-93.5 45q-71 0 -122 -65zM201 111 q0 54 39.5 92.5t93.5 38.5t92.5 -38.5t38.5 -92.5t-38.5 -92.5t-92.5 -38.5t-93.5 38.5t-39.5 92.5z" />
<glyph unicode="@" horiz-adv-x="1269" d="M72 440q0 164 56 322.5t149.5 278.5t223.5 194t269 74q191 0 309.5 -134t118.5 -364q0 -173 -46 -320.5t-121.5 -232t-160.5 -84.5q-67 0 -111 38t-52 101l-2 17q-99 -156 -228 -156q-80 0 -135 60.5t-55 197.5q0 141 46.5 275t136.5 224.5t200 90.5q58 0 95.5 -38 t51.5 -101l23 106h172l-115 -538q-6 -30 -6 -52q0 -49 13.5 -69.5t45.5 -20.5q22 0 50.5 34.5t55.5 95t45.5 159t18.5 211.5q0 203 -96 314.5t-258 111.5q-123 0 -238 -69t-197 -180.5t-131.5 -255t-49.5 -288.5q0 -232 106 -373t301 -141q83 0 152.5 29t140.5 86l37 -57 q-164 -129 -340 -129q-222 0 -348.5 156.5t-126.5 426.5zM467 459q0 -146 90 -146q28 0 53.5 12t47 36.5t35 44t32.5 51.5l66 303q-25 121 -97 121q-52 0 -97 -42t-72 -107t-42.5 -137t-15.5 -136z" />
<glyph unicode="A" horiz-adv-x="815" d="M6 0l279 1366h245l279 -1366h-219l-47 279h-271l-47 -279h-219zM297 467h221l-110 655z" />
<glyph unicode="B" horiz-adv-x="882" d="M117 0v1366h360q154 0 234 -96.5t80 -251.5q0 -125 -51 -204.5t-140 -108.5q92 -15 150.5 -112t58.5 -224q0 -170 -78.5 -269.5t-238.5 -99.5h-375zM330 188h104q156 0 156 207q0 92 -39 149.5t-117 57.5h-104v-414zM330 791h96q145 0 145 192q0 195 -145 195h-96v-387z " />
<glyph unicode="C" horiz-adv-x="843" d="M74 682q0 123 14 228.5t45 194.5t77 151.5t112 97.5t149 35q58 0 106 -18t80 -45.5t58.5 -69.5t42 -79t30.5 -85l-172 -64q-26 87 -57.5 128.5t-87.5 41.5q-178 0 -178 -516t178 -516q63 0 96.5 53.5t50.5 149.5l175 -64q-79 -330 -322 -330q-103 0 -180.5 53.5 t-124 150.5t-69.5 223t-23 280z" />
<glyph unicode="D" horiz-adv-x="931" d="M117 0v1366h305q113 0 198 -51.5t136.5 -144.5t76.5 -215.5t25 -272.5q0 -152 -25 -274t-76 -214.5t-135.5 -143t-197.5 -50.5h-307zM330 188h92q74 0 123.5 61t71.5 169.5t22 263.5q0 238 -53.5 367t-163.5 129h-92v-990z" />
<glyph unicode="E" horiz-adv-x="751" d="M117 0v1366h559v-188h-346v-387h332v-189h-332v-414h346v-188h-559z" />
<glyph unicode="F" horiz-adv-x="747" d="M117 0v1366h559v-188h-346v-387h332v-189h-332v-602h-213z" />
<glyph unicode="G" horiz-adv-x="890" d="M74 682q0 215 41.5 370.5t131.5 246t224 90.5q125 0 203.5 -82t113.5 -215l-172 -64q-23 84 -55 127t-90 43q-87 0 -132.5 -132.5t-45.5 -383.5q0 -250 45.5 -383t132.5 -133t133 72v294h-166v189h357v-574q-127 -172 -324 -172q-101 0 -177.5 51.5t-124 146t-71.5 222.5 t-24 287z" />
<glyph unicode="H" horiz-adv-x="948" d="M117 0v1366h213v-569h288v569h216v-1366h-216v608h-288v-608h-213z" />
<glyph unicode="I" horiz-adv-x="446" d="M117 0v1366h213v-1366h-213z" />
<glyph unicode="J" horiz-adv-x="690" d="M14 57l66 174q54 -65 133 -65q149 0 149 164v1036h213v-1047q0 -174 -90 -259t-249 -85q-130 0 -222 82z" />
<glyph unicode="K" horiz-adv-x="917" d="M117 0v1366h213v-666l313 666h236l-338 -645l364 -721h-243l-244 551l-88 -174v-377h-213z" />
<glyph unicode="L" horiz-adv-x="718" d="M117 0v1366h213v-1178h346v-188h-559z" />
<glyph unicode="M" horiz-adv-x="1210" d="M117 0v1366h276l213 -844l217 844h273v-1366h-211v952l-242 -952h-76l-237 952v-952h-213z" />
<glyph unicode="N" horiz-adv-x="948" d="M117 0v1366h213l288 -850v850h216v-1366h-203l-301 872v-872h-213z" />
<glyph unicode="O" horiz-adv-x="940" d="M74 682q0 153 22.5 278.5t68.5 223t123.5 151.5t180.5 54q104 0 182 -54t124 -151.5t68.5 -223t22.5 -278.5q0 -121 -13.5 -225.5t-44 -194t-76.5 -152.5t-112.5 -99t-150.5 -36q-103 0 -180.5 54t-123.5 152t-68.5 223t-22.5 278zM293 682q0 -233 42 -374.5t134 -141.5 q48 0 83.5 40t55.5 112t29.5 162t9.5 202q0 516 -178 516q-48 0 -82.5 -39t-54.5 -111t-29.5 -162.5t-9.5 -203.5z" />
<glyph unicode="P" horiz-adv-x="856" d="M117 0v1366h329q120 0 203.5 -59.5t120.5 -152.5t37 -210t-37 -210t-120.5 -152.5t-203.5 -59.5h-116v-522h-213zM330 711h96q78 0 120 63.5t42 169.5q0 107 -42 170.5t-120 63.5h-96v-467z" />
<glyph unicode="Q" horiz-adv-x="940" d="M74 682q0 153 22.5 278.5t68.5 223t123.5 151.5t180.5 54q104 0 182 -54t124 -151.5t68.5 -223t22.5 -278.5q0 -441 -170 -614l31 -80l-152 -60l-22 58q-49 -11 -84 -11q-103 0 -180.5 54t-123.5 152t-68.5 223t-22.5 278zM293 682q0 -233 42 -374.5t134 -141.5h14 l-104 274l151 60l74 -195q43 130 43 377q0 516 -178 516q-48 0 -82.5 -39t-54.5 -111t-29.5 -162.5t-9.5 -203.5z" />
<glyph unicode="R" horiz-adv-x="897" d="M117 0v1366h340q154 0 252 -115t98 -301q0 -84 -16.5 -152t-45 -112t-58 -71t-62.5 -42l194 -573h-229l-162 522h-98v-522h-213zM330 711h96q78 0 120 63.5t42 169.5q0 107 -42 170.5t-120 63.5h-96v-467z" />
<glyph unicode="S" horiz-adv-x="774" d="M33 106l96 168q39 -51 98 -79.5t119 -28.5q67 0 110.5 49.5t43.5 126.5q0 48 -18.5 91t-48.5 74t-69 64.5t-79 63t-79 69.5t-69 83t-48.5 105t-18.5 134q0 155 96.5 259t255.5 104q166 0 274 -105l-86 -164q-75 78 -182 78q-61 0 -101 -44.5t-40 -115.5q0 -48 23.5 -91 t61.5 -78t84 -71t92 -79t84 -92t61.5 -119.5t23.5 -153.5q0 -166 -99 -272.5t-260 -106.5q-203 0 -325 131z" />
<glyph unicode="T" horiz-adv-x="710" d="M37 1178v188h637v-188h-213v-1178h-213v1178h-211z" />
<glyph unicode="U" horiz-adv-x="950" d="M117 377v989h213v-999q0 -203 145 -203q146 0 146 203v999h213v-989q0 -102 -28.5 -181t-79 -126t-114 -71t-137.5 -24t-137.5 24t-113.5 71t-78.5 126t-28.5 181z" />
<glyph unicode="V" horiz-adv-x="815" d="M6 1366h219l183 -1090l182 1090h219l-279 -1366h-245z" />
<glyph unicode="W" horiz-adv-x="1202" d="M29 1366h219l127 -989l139 989h174l141 -989l125 989h220l-228 -1366h-219l-127 954l-125 -954h-219z" />
<glyph unicode="X" horiz-adv-x="835" d="M2 0l293 696l-277 670h236l164 -481l164 481h237l-278 -670l295 -696h-238l-180 504l-180 -504h-236z" />
<glyph unicode="Y" horiz-adv-x="829" d="M-6 1366h229l193 -584l194 584h226l-314 -795v-571h-213v571z" />
<glyph unicode="Z" horiz-adv-x="737" d="M63 0v182l359 996h-359v188h599v-174l-365 -1004h379v-188h-613z" />
<glyph unicode="[" horiz-adv-x="399" d="M72 -389v1778h290v-136h-147v-1507h147v-135h-290z" />
<glyph unicode="\" horiz-adv-x="442" d="M2 1407h139l301 -1448h-139z" />
<glyph unicode="]" horiz-adv-x="399" d="M35 -254h149v1507h-149v136h293v-1778h-293v135z" />
<glyph unicode="^" horiz-adv-x="684" d="M39 682l231 684h144l231 -684h-143l-160 526l-160 -526h-143z" />
<glyph unicode="_" horiz-adv-x="571" d="M-6 -82h584v-135h-584v135z" />
<glyph unicode="`" horiz-adv-x="335" d="M0 1434h174l162 -295h-125z" />
<glyph unicode="a" horiz-adv-x="815" d="M57 305q0 148 72 236t190 88q58 0 114.5 -31t86.5 -90v147q0 195 -151 195q-105 0 -199 -100l-74 135q60 66 144.5 97.5t165.5 31.5q149 0 228 -79t79 -239v-696h-193v102q-32 -62 -88 -94.5t-113 -32.5q-118 0 -190 90t-72 240zM250 301q0 -83 34.5 -137.5t98.5 -54.5 q99 0 137 106v170q-40 109 -137 109q-65 0 -99 -54.5t-34 -138.5z" />
<glyph unicode="b" horiz-adv-x="831" d="M102 0v1366h193v-506q29 76 81.5 115t108.5 39q138 0 210.5 -141t72.5 -379q0 -240 -72 -379.5t-211 -139.5q-54 0 -106.5 40.5t-83.5 111.5v-127h-193zM295 285q18 -59 55 -99.5t78 -40.5q141 0 141 349q0 350 -141 350q-41 0 -78 -41t-55 -101v-417z" />
<glyph unicode="c" horiz-adv-x="681" d="M63 496q0 229 95.5 373.5t261.5 144.5q140 0 223 -90l-68 -148q-59 68 -124 68q-63 0 -106.5 -49.5t-63 -126t-19.5 -172.5t19.5 -173t63 -127.5t106.5 -50.5q65 0 124 68l68 -147q-78 -91 -223 -91q-166 0 -261.5 146t-95.5 375z" />
<glyph unicode="d" horiz-adv-x="831" d="M63 494q0 238 72.5 379t210.5 141q56 0 109 -39.5t82 -114.5v506h192v-1366h-192v127q-31 -71 -84 -111.5t-107 -40.5q-139 0 -211 139.5t-72 379.5zM262 494q0 -349 144 -349q40 0 78 41.5t53 98.5v420q-15 57 -53 98t-78 41q-144 0 -144 -350z" />
<glyph unicode="e" horiz-adv-x="800" d="M63 496q0 147 37 262t117.5 185.5t194.5 70.5q87 0 152 -39.5t104 -110.5t58 -162t19 -202v-68h-493q2 -136 53.5 -217.5t149.5 -81.5q43 0 86 28t77 79l101 -105q-55 -76 -128.5 -118t-154.5 -42q-180 0 -276.5 143.5t-96.5 377.5zM252 569h305q0 54 -6.5 100.5 t-22.5 90.5t-47 70t-75 26t-75.5 -27.5t-48 -72.5t-23.5 -91t-7 -96z" />
<glyph unicode="f" horiz-adv-x="489" d="M39 821v168h94v129q0 128 62.5 198t179.5 70q102 0 160 -55l-56 -151q-32 37 -69 37q-42 0 -63 -26.5t-21 -72.5v-129h129v-168h-129v-821h-193v821h-94z" />
<glyph unicode="g" horiz-adv-x="831" d="M63 506q0 236 72 372t211 136q56 0 109 -39.5t82 -114.5v129h192v-995q0 -109 -27.5 -188t-77 -123t-109 -64t-132.5 -20q-180 0 -287 104l70 160q87 -94 199 -94q80 0 126 55.5t46 169.5v162q-31 -73 -84 -114.5t-107 -41.5q-140 0 -211.5 133.5t-71.5 372.5zM262 506 q0 -336 144 -336q40 0 78 41t53 98v396q-15 57 -53 98t-78 41q-144 0 -144 -338z" />
<glyph unicode="h" d="M102 0v1366h193v-510q32 64 97 111t130 47q104 0 151.5 -54.5t47.5 -164.5v-795h-193v731q0 113 -84 113q-46 0 -86.5 -42.5t-62.5 -101.5v-700h-193z" />
<glyph unicode="i" horiz-adv-x="397" d="M76 1239q0 51 36.5 87t86.5 36q51 0 87 -36t36 -87t-36 -86t-87 -35q-50 0 -86.5 35.5t-36.5 85.5zM102 0v989h193v-989h-193z" />
<glyph unicode="j" horiz-adv-x="397" d="M-72 -346l54 147q16 -32 53 -32q67 0 67 120v1100h193v-1100q0 -151 -59 -220.5t-187 -69.5q-81 0 -121 55zM76 1239q0 51 36.5 87t86.5 36q51 0 87 -36t36 -87t-36 -86t-87 -35q-50 0 -86.5 35.5t-36.5 85.5z" />
<glyph unicode="k" horiz-adv-x="788" d="M102 0v1366h193v-872l260 495h209l-242 -440l246 -549h-209l-164 418l-100 -178v-240h-193z" />
<glyph unicode="l" horiz-adv-x="397" d="M102 0v1366h193v-1366h-193z" />
<glyph unicode="m" horiz-adv-x="1249" d="M102 0v989h193v-133q29 62 94.5 110t132.5 48q80 0 132 -42.5t61 -123.5q30 67 96.5 116.5t136.5 49.5q199 0 199 -221v-793h-193v729q0 115 -84 115q-47 0 -87.5 -43t-61.5 -101v-700h-193v729q0 115 -84 115q-47 0 -87.5 -43t-61.5 -101v-700h-193z" />
<glyph unicode="n" d="M102 0v989h193v-133q32 64 97 111t130 47q199 0 199 -221v-793h-193v729q0 115 -84 115q-46 0 -86.5 -42.5t-62.5 -101.5v-700h-193z" />
<glyph unicode="o" d="M63 496q0 105 20.5 196t61.5 164.5t109.5 115.5t157.5 42q72 0 130.5 -28t98 -76t66.5 -114.5t39 -141t12 -158.5t-12 -159t-39 -142t-66.5 -115.5t-98 -76.5t-130.5 -28q-89 0 -157.5 42.5t-109.5 116.5t-61.5 165.5t-20.5 196.5zM264 496q0 -351 148 -351 q147 0 147 351q0 348 -147 348q-148 0 -148 -348z" />
<glyph unicode="p" horiz-adv-x="831" d="M102 -377v1366h193v-127q31 71 83.5 111.5t106.5 40.5q139 0 211 -139t72 -379q0 -237 -72.5 -379t-210.5 -142q-56 0 -108.5 39t-81.5 115v-506h-193zM295 285q18 -58 55 -99t78 -41q141 0 141 351q0 348 -141 348q-42 0 -78.5 -39t-54.5 -98v-422z" />
<glyph unicode="q" horiz-adv-x="831" d="M63 496q0 240 72 379t211 139q54 0 107 -40.5t84 -111.5v127h192v-1366h-192v506q-29 -75 -82 -114.5t-109 -39.5q-138 0 -210.5 142t-72.5 379zM262 496q0 -351 144 -351q40 0 78 41.5t53 98.5v422q-15 58 -52.5 97.5t-78.5 39.5q-144 0 -144 -348z" />
<glyph unicode="r" horiz-adv-x="548" d="M102 0v989h193v-145q33 74 94.5 121t130.5 47v-193q-21 6 -41 6q-54 0 -103.5 -40.5t-80.5 -102.5v-682h-193z" />
<glyph unicode="s" horiz-adv-x="675" d="M33 102l84 134q89 -107 198 -107q58 0 96 33.5t38 89.5q0 38 -21 69t-55 54t-74.5 46t-81.5 51.5t-75 63.5t-55 89.5t-21 122.5q0 114 79 190t213 76q158 0 267 -115l-82 -129q-30 40 -78.5 65t-102.5 25q-52 0 -84 -30.5t-32 -75.5q0 -35 21 -64t55 -51.5t75 -46 t82.5 -53t75.5 -65.5t55 -91.5t21 -124.5q0 -125 -85 -204t-214 -79q-199 0 -299 127z" />
<glyph unicode="t" horiz-adv-x="505" d="M37 821v168h96v271h193v-271h129v-168h-129v-575q0 -53 13 -77t44 -24q37 0 61 31l45 -147q-54 -54 -151 -54q-108 0 -156.5 57.5t-48.5 178.5v610h-96z" />
<glyph unicode="u" d="M102 195v794h193v-731q0 -113 84 -113q47 0 87 40.5t62 99.5v704h193v-989h-193v129q-32 -65 -95 -109.5t-132 -44.5q-104 0 -151.5 55t-47.5 165z" />
<glyph unicode="v" horiz-adv-x="731" d="M10 989h205l150 -749l153 749h203l-252 -989h-209z" />
<glyph unicode="w" horiz-adv-x="1185" d="M18 989h199l135 -725l142 725h188l149 -725l138 725h200l-223 -989h-201l-151 727l-154 -727h-200z" />
<glyph unicode="x" horiz-adv-x="720" d="M14 0l228 500l-217 489h204l131 -344l132 344h202l-215 -489l228 -500h-207l-140 354l-141 -354h-205z" />
<glyph unicode="y" horiz-adv-x="731" d="M10 989h205l150 -745l153 745h203l-303 -1182q-33 -119 -88.5 -163.5t-153.5 -44.5q-65 0 -100 14l28 168q21 -12 48 -12q34 0 53 18t31 61l32 125z" />
<glyph unicode="z" horiz-adv-x="657" d="M61 0v147l299 674h-299v168h527v-141l-299 -680h307v-168h-535z" />
<glyph unicode="{" horiz-adv-x="434" d="M10 440v119q52 0 79.5 39.5t27.5 99.5v459q0 100 67 166t156 66h59v-136h-59q-33 0 -56.5 -27t-23.5 -69v-475q0 -143 -92 -182q92 -39 92 -183v-477q0 -41 23.5 -68.5t56.5 -27.5h59v-133h-59q-90 0 -156.5 64.5t-66.5 164.5v461q0 60 -27.5 99.5t-79.5 39.5z" />
<glyph unicode="|" horiz-adv-x="366" d="M117 -41v1448h133v-1448h-133z" />
<glyph unicode="}" horiz-adv-x="434" d="M35 -256h59q34 0 57 27.5t23 68.5v477q0 144 92 183q-92 39 -92 182v475q0 42 -23 69t-57 27h-59v136h59q89 0 156 -66t67 -166v-459q0 -60 27.5 -99.5t79.5 -39.5v-119q-52 0 -79.5 -39.5t-27.5 -99.5v-461q0 -100 -66.5 -164.5t-156.5 -64.5h-59v133z" />
<glyph unicode="~" horiz-adv-x="833" d="M55 870q3 51 6 91.5t10.5 94t18.5 94t29 82.5t41.5 69.5t57.5 45t75 17.5q49 0 84 -28t51.5 -70.5t30 -92t21.5 -92t23 -70.5t38 -28q47 0 65.5 79.5t34.5 303.5l137 -12q-3 -52 -6 -91.5t-10.5 -94t-18 -94.5t-28.5 -83t-41 -70.5t-57 -45t-76 -17.5q-58 0 -95.5 39 t-54 95t-27.5 111.5t-27.5 94.5t-43.5 39q-47 0 -65.5 -79.5t-34.5 -301.5z" />
<glyph unicode="&#xa1;" horiz-adv-x="489" d="M113 879q0 54 39.5 92.5t93.5 38.5t93.5 -38.5t39.5 -92.5t-39.5 -92.5t-93.5 -38.5t-93.5 38.5t-39.5 92.5zM127 -377l37 961h164l37 -961h-238z" />
<glyph unicode="&#xa2;" horiz-adv-x="681" d="M63 496q0 206 78 346t217 166v149h146v-153q82 -19 139 -80l-68 -148q-44 47 -71 58v-678q33 13 71 57l68 -147q-52 -61 -139 -82v-189h-146v187q-140 26 -217.5 166.5t-77.5 347.5zM262 496q0 -236 96 -316v629q-96 -80 -96 -313z" />
<glyph unicode="&#xa3;" horiz-adv-x="829" d="M61 561v129h115q-38 75 -59 142.5t-21 154.5q0 166 105 282.5t254 116.5q121 0 205 -65t108 -186l-170 -76q-19 74 -49 112.5t-84 38.5q-56 0 -97.5 -61.5t-41.5 -165.5q0 -39 4 -72.5t15 -67.5t17 -51t24 -55t22 -47h151v-129h-113q7 -44 7 -80q0 -71 -35.5 -151.5 t-87.5 -124.5q37 18 76 18q47 0 105.5 -28.5t94.5 -28.5q42 0 78.5 18.5t58.5 46.5l62 -168q-27 -36 -89 -62t-128 -26q-47 0 -86.5 13t-62 29t-53 29t-60.5 13q-73 0 -168 -73l-68 149q77 51 123.5 131.5t46.5 163.5q0 61 -24 131h-175z" />
<glyph unicode="&#xa4;" horiz-adv-x="1069" d="M74 281l114 114q-102 127 -102 287q0 163 102 287l-114 116l57 58l117 -115q120 102 287 102q162 0 286 -102l115 115l59 -58l-114 -116q102 -124 102 -287q0 -160 -102 -287l114 -114l-59 -60l-115 117q-124 -105 -286 -105q-163 0 -287 105l-117 -117zM184 682 q0 -145 103 -247.5t248 -102.5t247.5 102.5t102.5 247.5q0 146 -102.5 248t-247.5 102t-248 -102t-103 -248z" />
<glyph unicode="&#xa5;" horiz-adv-x="829" d="M-6 1366h229l193 -584l194 584h226l-265 -668h207v-127h-256v-198h256v-127h-256v-246h-213v246h-262v127h262v198h-262v127h211z" />
<glyph unicode="&#xa6;" horiz-adv-x="366" d="M117 -41v647h133v-647h-133zM117 760v647h133v-647h-133z" />
<glyph unicode="&#xa7;" horiz-adv-x="677" d="M33 -39l84 129q31 -41 85 -75.5t113 -34.5q61 0 97.5 39t36.5 94q0 42 -21 76t-55 58.5t-74.5 48.5t-81.5 52.5t-75 62.5t-55 87t-21 118q0 80 44.5 144.5t122.5 87.5q-91 62 -129 130.5t-38 151.5q0 113 79.5 184.5t196.5 71.5q98 0 163 -29t118 -87l-82 -117 q-45 51 -87.5 72.5t-93.5 21.5q-52 0 -83 -32.5t-31 -84.5q0 -38 21 -70t55 -56t75 -48t82.5 -53.5t75.5 -64.5t55 -88.5t21 -118.5q0 -74 -37 -140t-109 -104q76 -57 111 -121.5t35 -148.5q0 -119 -85 -201t-214 -82q-187 0 -299 127zM236 647q0 -58 30.5 -104.5 t102.5 -91.5q92 46 92 139q0 118 -105 192q-65 -14 -92.5 -51.5t-27.5 -83.5z" />
<glyph unicode="&#xa8;" horiz-adv-x="557" d="M10 1243q0 44 33.5 76.5t77.5 32.5q45 0 77.5 -32t32.5 -77q0 -46 -32 -78t-78 -32q-45 0 -78 32.5t-33 77.5zM326 1243q0 45 32 77t78 32q44 0 77.5 -32.5t33.5 -76.5q0 -45 -33 -77.5t-78 -32.5q-46 0 -78 32t-32 78z" />
<glyph unicode="&#xa9;" horiz-adv-x="1593" d="M90 684q0 191 95 354t258 258t354 95q143 0 274 -56t225.5 -151t150.5 -226t56 -274t-56 -274t-150.5 -226t-225.5 -151t-274 -56q-191 0 -354 95t-258 258t-95 354zM158 684q0 -129 51 -247t137 -204t204 -137t247 -51t247 51t204 137t137 204t51 247t-51 247t-137 204 t-204 137t-247 51t-247 -51t-204 -137t-137 -204t-51 -247zM377 684q0 188 123.5 312t304.5 124q183 0 299 -135l-55 -55q-40 54 -106 86.5t-138 32.5q-142 0 -244 -102.5t-102 -262.5q0 -154 102.5 -258t243.5 -104q73 0 138.5 32t105.5 86l57 -53q-118 -137 -301 -137 q-179 0 -303.5 125t-124.5 309z" />
<glyph unicode="&#xaa;" horiz-adv-x="598" d="M45 862q0 98 51.5 154.5t130.5 56.5q97 0 144 -76v93q0 124 -107 124q-72 0 -137 -73l-55 96q43 45 103.5 67.5t117.5 22.5q221 0 221 -231v-428h-143v65q-49 -82 -144 -82q-79 0 -130.5 57t-51.5 154zM188 866q0 -53 23 -85.5t65 -32.5q68 0 95 67v103q-27 69 -95 69 q-41 0 -64.5 -34t-23.5 -87z" />
<glyph unicode="&#xab;" horiz-adv-x="735" d="M61 498l185 362h153l-184 -362l184 -369h-153zM336 498l184 362h154l-185 -362l185 -369h-154z" />
<glyph unicode="&#xac;" horiz-adv-x="780" d="M59 817v127h662v-520h-131v393h-531z" />
<glyph unicode="&#xad;" horiz-adv-x="489" d="M61 412v168h365v-168h-365z" />
<glyph unicode="&#xae;" horiz-adv-x="1011" d="M72 952q0 181 127 307.5t307 126.5q119 0 219 -57.5t157.5 -157.5t57.5 -219q0 -180 -126.5 -307t-307.5 -127q-180 0 -307 127t-127 307zM133 952q0 -154 109 -263t264 -109t264 109t109 263q0 156 -108.5 264.5t-264.5 108.5t-264.5 -108.5t-108.5 -264.5zM340 702v498 h203q65 0 112 -42t47 -109q0 -72 -46 -110t-81 -38l134 -199h-84l-129 197h-88v-197h-68zM408 961h135q34 0 62 25.5t28 62.5q0 39 -28 65.5t-62 26.5h-135v-180z" />
<glyph unicode="&#xaf;" horiz-adv-x="520" d="M0 1210v117h520v-117h-520z" />
<glyph unicode="&#xb0;" horiz-adv-x="610" d="M45 1126q0 107 75.5 183.5t182.5 76.5t183.5 -76.5t76.5 -183.5t-76.5 -182.5t-183.5 -75.5t-182.5 75.5t-75.5 182.5zM160 1126q0 -60 41.5 -101.5t101.5 -41.5t104 41.5t44 101.5t-44 104t-104 44t-101.5 -44t-41.5 -104z" />
<glyph unicode="&#xb1;" horiz-adv-x="780" d="M59 72v125h662v-125h-662zM59 627v127h263v293h137v-293h262v-127h-262v-305h-137v305h-263z" />
<glyph unicode="&#xb2;" horiz-adv-x="575" d="M41 1559q89 135 246 135q110 0 176.5 -61t66.5 -167q0 -86 -57.5 -180.5t-226.5 -302.5h289v-121h-476v111q210 247 267 332t57 157q0 49 -29 80t-75 31q-43 0 -81.5 -26.5t-64.5 -73.5z" />
<glyph unicode="&#xb3;" horiz-adv-x="575" d="M35 981l98 90q55 -102 146 -102q56 0 83 34t27 93q0 67 -35 97t-84 30q-45 0 -57 -2v120q10 -2 51 -2q54 0 84.5 29t30.5 86q0 119 -103 119q-85 0 -139 -90l-94 80q40 63 103.5 97t138.5 34q109 0 174 -56t65 -165q0 -66 -39.5 -120.5t-97.5 -66.5q62 -11 106 -67 t44 -132q0 -108 -68 -173.5t-184 -65.5q-84 0 -149.5 36.5t-100.5 96.5z" />
<glyph unicode="&#xb4;" horiz-adv-x="335" d="M0 1139l162 295h174l-211 -295h-125z" />
<glyph unicode="&#xb6;" horiz-adv-x="919" d="M55 1014q0 146 103.5 249t249.5 103h385v-1571h-105v1467h-176v-1467h-104v867q-146 0 -249.5 103t-103.5 249z" />
<glyph unicode="&#xb7;" horiz-adv-x="489" d="M113 502q0 53 38.5 92t92.5 39q55 0 94 -39t39 -92q0 -54 -39 -93.5t-94 -39.5q-54 0 -92.5 39.5t-38.5 93.5z" />
<glyph unicode="&#xb8;" horiz-adv-x="358" d="M0 -332l41 84q64 -55 123 -55q38 0 64 22t26 56q0 28 -14 44.5t-39 16.5q-33 0 -56 -26l-75 43l63 170h105l-54 -134q27 21 60 21q48 0 81 -38.5t33 -98.5q0 -74 -54 -121t-136 -47q-94 0 -168 63z" />
<glyph unicode="&#xb9;" horiz-adv-x="475" d="M25 1454l223 227h129v-819h-150v627l-118 -123z" />
<glyph unicode="&#xba;" horiz-adv-x="614" d="M55 989q0 143 65.5 240.5t186.5 97.5q122 0 187 -97.5t65 -240.5t-65 -240.5t-187 -97.5q-121 0 -186.5 97.5t-65.5 240.5zM203 989q0 -221 104 -221q103 0 103 221q0 219 -103 219q-104 0 -104 -219z" />
<glyph unicode="&#xbb;" horiz-adv-x="735" d="M61 129l185 369l-185 362h154l184 -362l-184 -369h-154zM336 129l184 369l-184 362h153l185 -362l-185 -369h-153z" />
<glyph unicode="&#xbc;" horiz-adv-x="1263" d="M25 1139l223 227h129v-819h-150v627l-118 -123zM299 0l565 1366h97l-568 -1366h-94zM719 195v118l264 506h180v-506h72v-118h-72v-195h-147v195h-297zM846 313h170v340z" />
<glyph unicode="&#xbd;" horiz-adv-x="1333" d="M25 1139l223 227h129v-819h-150v627l-118 -123zM299 0l565 1366h97l-568 -1366h-94zM799 696q89 135 245 135q110 0 177 -60.5t67 -166.5q0 -86 -57.5 -180.5t-226.5 -302.5h288v-121h-475v111q210 247 267 332t57 157q0 49 -29.5 80t-75.5 31q-42 0 -80.5 -26.5 t-64.5 -74.5z" />
<glyph unicode="&#xbe;" horiz-adv-x="1337" d="M35 666l98 90q56 -103 146 -103q56 0 83 34t27 93q0 67 -35 97t-84 30q-45 0 -57 -2v121q10 -2 51 -2q54 0 84.5 29t30.5 86q0 118 -103 118q-85 0 -139 -90l-94 80q40 63 103.5 97t138.5 34q109 0 174 -56t65 -165q0 -66 -39.5 -120t-97.5 -66q62 -11 106 -67t44 -132 q0 -108 -68 -174t-184 -66q-84 0 -149 37t-101 97zM373 0l565 1366h96l-567 -1366h-94zM793 195v118l264 506h180v-506h72v-118h-72v-195h-147v195h-297zM920 313h170v340z" />
<glyph unicode="&#xbf;" horiz-adv-x="573" d="M39 -111q0 71 24 134.5t57.5 110.5t67.5 91.5t58 96t24 104.5q0 57 -34 100l161 66q54 -69 54 -176q0 -64 -20.5 -120t-50.5 -96.5t-59.5 -79.5t-50 -87.5t-20.5 -102.5q0 -57 36 -102t93 -45q70 0 123 65l90 -135q-105 -114 -260 -114q-131 0 -212 82.5t-81 207.5z M190 879q0 54 39 92.5t93 38.5t93.5 -38.5t39.5 -92.5t-39.5 -92.5t-93.5 -38.5t-93 38.5t-39 92.5z" />
<glyph unicode="&#xc0;" horiz-adv-x="815" d="M6 0l279 1366h245l279 -1366h-219l-47 279h-271l-47 -279h-219zM193 1786h174l161 -295h-125zM297 467h221l-110 655z" />
<glyph unicode="&#xc1;" horiz-adv-x="815" d="M6 0l279 1366h245l279 -1366h-219l-47 279h-271l-47 -279h-219zM291 1491l162 295h174l-211 -295h-125zM297 467h221l-110 655z" />
<glyph unicode="&#xc2;" horiz-adv-x="815" d="M6 0l279 1366h245l279 -1366h-219l-47 279h-271l-47 -279h-219zM186 1491l131 295h179l135 -295h-109l-116 201l-109 -201h-111zM297 467h221l-110 655z" />
<glyph unicode="&#xc3;" horiz-adv-x="815" d="M6 0l279 1366h245l279 -1366h-219l-47 279h-271l-47 -279h-219zM160 1499q0 122 42.5 198.5t121.5 76.5q37 0 63.5 -26.5t37.5 -58.5t28 -58.5t39 -26.5q63 0 63 157h102q0 -123 -41 -198.5t-120 -75.5q-31 0 -53.5 17.5t-35.5 42.5t-24 50t-24.5 42.5t-30.5 17.5 q-66 0 -66 -158h-102zM297 467h221l-110 655z" />
<glyph unicode="&#xc4;" horiz-adv-x="815" d="M6 0l279 1366h245l279 -1366h-219l-47 279h-271l-47 -279h-219zM139 1593q0 44 33.5 76.5t77.5 32.5q46 0 78 -32t32 -77q0 -46 -32 -78t-78 -32q-45 0 -78 32.5t-33 77.5zM297 467h221l-110 655zM455 1593q0 45 32.5 77t77.5 32q44 0 77.5 -32.5t33.5 -76.5 q0 -45 -33 -77.5t-78 -32.5q-46 0 -78 32t-32 78z" />
<glyph unicode="&#xc5;" horiz-adv-x="815" d="M6 0l279 1366h245l279 -1366h-219l-47 279h-271l-47 -279h-219zM231 1595q0 73 52.5 126t126.5 53q72 0 123 -52.5t51 -126.5q0 -72 -51 -124t-123 -52q-73 0 -126 52t-53 124zM297 467h221l-110 655zM322 1595q0 -35 25.5 -60.5t62.5 -25.5q35 0 60.5 25.5t25.5 60.5 q0 37 -25.5 62.5t-60.5 25.5q-37 0 -62.5 -25.5t-25.5 -62.5z" />
<glyph unicode="&#xc6;" horiz-adv-x="1196" d="M18 0l453 1366h651v-188h-344v-387h330v-189h-330v-414h344v-188h-559v279h-244l-83 -279h-218zM371 467h192v655z" />
<glyph unicode="&#xc7;" horiz-adv-x="843" d="M74 682q0 123 14 228.5t45 194.5t77 151.5t112 97.5t149 35q58 0 106 -18t80 -45.5t58.5 -69.5t42 -79t30.5 -85l-172 -64q-26 87 -57.5 128.5t-87.5 41.5q-178 0 -178 -516t178 -516q63 0 96.5 53.5t50.5 149.5l175 -64q-74 -304 -285 -328l-31 -79q26 20 60 20 q48 0 81 -38.5t33 -98.5q0 -74 -54 -121t-136 -47q-94 0 -168 63l41 84q64 -55 123 -55q38 0 64 22t26 56q0 28 -14 44.5t-39 16.5q-33 0 -56 -26l-76 43l46 121q-86 16 -151 75t-104.5 152.5t-59 212t-19.5 260.5z" />
<glyph unicode="&#xc8;" horiz-adv-x="751" d="M117 0v1366h559v-188h-346v-387h332v-189h-332v-414h346v-188h-559zM186 1786h174l162 -295h-125z" />
<glyph unicode="&#xc9;" horiz-adv-x="751" d="M117 0v1366h559v-188h-346v-387h332v-189h-332v-414h346v-188h-559zM285 1491l161 295h175l-211 -295h-125z" />
<glyph unicode="&#xca;" horiz-adv-x="751" d="M117 0v1366h559v-188h-346v-387h332v-189h-332v-414h346v-188h-559zM176 1491l131 295h178l136 -295h-109l-117 201l-108 -201h-111z" />
<glyph unicode="&#xcb;" horiz-adv-x="751" d="M117 0v1366h559v-188h-346v-387h332v-189h-332v-414h346v-188h-559zM131 1593q0 44 33.5 76.5t77.5 32.5q46 0 78 -32t32 -77q0 -46 -32 -78t-78 -32q-45 0 -78 32.5t-33 77.5zM446 1593q0 44 32.5 76.5t78.5 32.5q44 0 77.5 -32.5t33.5 -76.5q0 -45 -33 -77.5t-78 -32.5 q-46 0 -78.5 32t-32.5 78z" />
<glyph unicode="&#xcc;" horiz-adv-x="446" d="M6 1786h174l162 -295h-125zM117 0v1366h213v-1366h-213z" />
<glyph unicode="&#xcd;" horiz-adv-x="446" d="M109 1491l161 295h174l-211 -295h-124zM117 0v1366h213v-1366h-213z" />
<glyph unicode="&#xce;" horiz-adv-x="446" d="M2 1491l131 295h178l135 -295h-108l-117 201l-108 -201h-111zM117 0v1366h213v-1366h-213z" />
<glyph unicode="&#xcf;" horiz-adv-x="446" d="M-41 1591q0 44 33.5 76.5t77.5 32.5q46 0 78 -32t32 -77q0 -46 -32 -78t-78 -32q-45 0 -78 32.5t-33 77.5zM117 0v1366h213v-1366h-213zM274 1591q0 44 32.5 76.5t78.5 32.5q44 0 77.5 -32.5t33.5 -76.5q0 -45 -33 -77.5t-78 -32.5q-46 0 -78.5 32t-32.5 78z" />
<glyph unicode="&#xd0;" horiz-adv-x="974" d="M37 596v156h123v614h305q113 0 198 -51.5t136.5 -144.5t76.5 -215.5t25 -272.5q0 -152 -25 -274t-76 -214.5t-135.5 -143t-197.5 -50.5h-307v596h-123zM373 188h92q74 0 123.5 61t71.5 169.5t22 263.5q0 238 -53.5 367t-163.5 129h-92v-426h151v-156h-151v-408z" />
<glyph unicode="&#xd1;" horiz-adv-x="948" d="M117 0v1366h213l288 -850v850h216v-1366h-203l-301 872v-872h-213zM221 1499q0 122 42.5 198.5t121.5 76.5q37 0 63.5 -26.5t37.5 -58.5t28 -58.5t39 -26.5q63 0 63 157h103q0 -122 -41.5 -198t-120.5 -76q-31 0 -53.5 17.5t-35.5 42.5t-24 50t-24.5 42.5t-30.5 17.5 q-65 0 -65 -158h-103z" />
<glyph unicode="&#xd2;" horiz-adv-x="940" d="M74 682q0 153 22.5 278.5t68.5 223t123.5 151.5t180.5 54q104 0 182 -54t124 -151.5t68.5 -223t22.5 -278.5q0 -121 -13.5 -225.5t-44 -194t-76.5 -152.5t-112.5 -99t-150.5 -36q-103 0 -180.5 54t-123.5 152t-68.5 223t-22.5 278zM252 1786h174l162 -295h-125zM293 682 q0 -233 42 -374.5t134 -141.5q48 0 83.5 40t55.5 112t29.5 162t9.5 202q0 516 -178 516q-48 0 -82.5 -39t-54.5 -111t-29.5 -162.5t-9.5 -203.5z" />
<glyph unicode="&#xd3;" horiz-adv-x="940" d="M74 682q0 153 22.5 278.5t68.5 223t123.5 151.5t180.5 54q104 0 182 -54t124 -151.5t68.5 -223t22.5 -278.5q0 -121 -13.5 -225.5t-44 -194t-76.5 -152.5t-112.5 -99t-150.5 -36q-103 0 -180.5 54t-123.5 152t-68.5 223t-22.5 278zM293 682q0 -233 42 -374.5t134 -141.5 q48 0 83.5 40t55.5 112t29.5 162t9.5 202q0 516 -178 516q-48 0 -82.5 -39t-54.5 -111t-29.5 -162.5t-9.5 -203.5zM352 1491l162 295h174l-211 -295h-125z" />
<glyph unicode="&#xd4;" horiz-adv-x="940" d="M74 682q0 153 22.5 278.5t68.5 223t123.5 151.5t180.5 54q104 0 182 -54t124 -151.5t68.5 -223t22.5 -278.5q0 -121 -13.5 -225.5t-44 -194t-76.5 -152.5t-112.5 -99t-150.5 -36q-103 0 -180.5 54t-123.5 152t-68.5 223t-22.5 278zM250 1491l131 295h178l135 -295h-108 l-117 201l-109 -201h-110zM293 682q0 -233 42 -374.5t134 -141.5q48 0 83.5 40t55.5 112t29.5 162t9.5 202q0 516 -178 516q-48 0 -82.5 -39t-54.5 -111t-29.5 -162.5t-9.5 -203.5z" />
<glyph unicode="&#xd5;" horiz-adv-x="940" d="M74 682q0 153 22.5 278.5t68.5 223t123.5 151.5t180.5 54q104 0 182 -54t124 -151.5t68.5 -223t22.5 -278.5q0 -121 -13.5 -225.5t-44 -194t-76.5 -152.5t-112.5 -99t-150.5 -36q-103 0 -180.5 54t-123.5 152t-68.5 223t-22.5 278zM223 1499q0 122 42.5 198.5t121.5 76.5 q37 0 63.5 -26.5t37.5 -58.5t28 -58.5t39 -26.5q63 0 63 157h103q0 -122 -41.5 -198t-120.5 -76q-31 0 -53.5 17.5t-35.5 42.5t-24 50t-24.5 42.5t-30.5 17.5q-65 0 -65 -158h-103zM293 682q0 -233 42 -374.5t134 -141.5q48 0 83.5 40t55.5 112t29.5 162t9.5 202 q0 516 -178 516q-48 0 -82.5 -39t-54.5 -111t-29.5 -162.5t-9.5 -203.5z" />
<glyph unicode="&#xd6;" horiz-adv-x="940" d="M74 682q0 153 22.5 278.5t68.5 223t123.5 151.5t180.5 54q104 0 182 -54t124 -151.5t68.5 -223t22.5 -278.5q0 -121 -13.5 -225.5t-44 -194t-76.5 -152.5t-112.5 -99t-150.5 -36q-103 0 -180.5 54t-123.5 152t-68.5 223t-22.5 278zM203 1593q0 44 33 76.5t77 32.5 q46 0 78.5 -32.5t32.5 -76.5q0 -46 -32.5 -78t-78.5 -32q-45 0 -77.5 32.5t-32.5 77.5zM293 682q0 -233 42 -374.5t134 -141.5q48 0 83.5 40t55.5 112t29.5 162t9.5 202q0 516 -178 516q-48 0 -82.5 -39t-54.5 -111t-29.5 -162.5t-9.5 -203.5zM518 1593q0 44 32.5 76.5 t78.5 32.5q44 0 77 -32.5t33 -76.5q0 -45 -32.5 -77.5t-77.5 -32.5q-46 0 -78.5 32t-32.5 78z" />
<glyph unicode="&#xd7;" horiz-adv-x="780" d="M88 473l213 211l-213 211l90 90l211 -211l213 211l90 -90l-213 -211l213 -211l-90 -90l-213 211l-211 -211z" />
<glyph unicode="&#xd8;" horiz-adv-x="940" d="M74 682q0 153 22.5 278.5t68.5 223t123.5 151.5t180.5 54q127 0 217 -84l29 61h131l-78 -170q98 -186 98 -514q0 -121 -13.5 -225.5t-44 -194t-76.5 -152.5t-112.5 -99t-150.5 -36q-130 0 -215 82l-27 -57h-131l76 168q-98 178 -98 514zM293 682q0 -138 10 -223l287 635 q-43 104 -121 104q-48 0 -82.5 -39t-54.5 -111t-29.5 -162.5t-9.5 -203.5zM348 268q45 -102 121 -102q48 0 83.5 40t55.5 112t29.5 162t9.5 202q0 120 -12 219z" />
<glyph unicode="&#xd9;" horiz-adv-x="950" d="M117 377v989h213v-999q0 -203 145 -203q146 0 146 203v999h213v-989q0 -102 -28.5 -181t-79 -126t-114 -71t-137.5 -24t-137.5 24t-113.5 71t-78.5 126t-28.5 181zM258 1786h174l162 -295h-125z" />
<glyph unicode="&#xda;" horiz-adv-x="950" d="M117 377v989h213v-999q0 -203 145 -203q146 0 146 203v999h213v-989q0 -102 -28.5 -181t-79 -126t-114 -71t-137.5 -24t-137.5 24t-113.5 71t-78.5 126t-28.5 181zM358 1491l162 295h174l-211 -295h-125z" />
<glyph unicode="&#xdb;" horiz-adv-x="950" d="M117 377v989h213v-999q0 -203 145 -203q146 0 146 203v999h213v-989q0 -102 -28.5 -181t-79 -126t-114 -71t-137.5 -24t-137.5 24t-113.5 71t-78.5 126t-28.5 181zM254 1491l131 295h178l135 -295h-108l-117 201l-108 -201h-111z" />
<glyph unicode="&#xdc;" horiz-adv-x="950" d="M117 377v989h213v-999q0 -203 145 -203q146 0 146 203v999h213v-989q0 -102 -28.5 -181t-79 -126t-114 -71t-137.5 -24t-137.5 24t-113.5 71t-78.5 126t-28.5 181zM207 1593q0 44 33 76.5t77 32.5q46 0 78.5 -32.5t32.5 -76.5q0 -46 -32.5 -78t-78.5 -32 q-45 0 -77.5 32.5t-32.5 77.5zM522 1593q0 44 32.5 76.5t78.5 32.5q44 0 77 -32.5t33 -76.5q0 -45 -32.5 -77.5t-77.5 -32.5q-46 0 -78.5 32t-32.5 78z" />
<glyph unicode="&#xdd;" horiz-adv-x="829" d="M-6 1366h229l193 -584l194 584h226l-314 -795v-571h-213v571zM303 1491l162 295h174l-211 -295h-125z" />
<glyph unicode="&#xde;" horiz-adv-x="856" d="M117 0v1366h213v-236h116q91 0 161.5 -34t113.5 -93.5t64.5 -134.5t21.5 -161t-21.5 -160t-64.5 -133t-113.5 -93t-161.5 -34h-116v-287h-213zM330 475h96q78 0 120 63.5t42 168.5q0 107 -42 171t-120 64h-96v-467z" />
<glyph unicode="&#xdf;" horiz-adv-x="1001" d="M119 0v1028q0 155 96 256.5t256 101.5q141 0 240.5 -80t99.5 -196q0 -50 -15 -93t-37 -70t-48.5 -53.5t-48.5 -46t-37 -45t-15 -52.5q0 -35 20 -64.5t52 -51.5t70.5 -45t77.5 -52t71 -65t52 -91t20 -123q0 -114 -83 -198.5t-208 -84.5q-93 0 -160 31.5t-123 95.5l74 136 q82 -107 174 -107q51 0 87 34t36 89q0 38 -19 69.5t-50 55.5t-68 48t-74 52t-68 61.5t-50 83.5t-19 111q0 51 20 94t49 72.5t58 57t49 61t20 70.5q0 53 -41.5 90t-105.5 37q-72 0 -117 -47t-45 -142v-1028h-190z" />
<glyph unicode="&#xe0;" horiz-adv-x="815" d="M57 305q0 148 72 236t190 88q58 0 114.5 -31t86.5 -90v147q0 195 -151 195q-105 0 -199 -100l-74 135q60 66 144.5 97.5t165.5 31.5q149 0 228 -79t79 -239v-696h-193v102q-32 -62 -88 -94.5t-113 -32.5q-118 0 -190 90t-72 240zM193 1434h174l161 -295h-125zM250 301 q0 -83 34.5 -137.5t98.5 -54.5q99 0 137 106v170q-40 109 -137 109q-65 0 -99 -54.5t-34 -138.5z" />
<glyph unicode="&#xe1;" horiz-adv-x="815" d="M57 305q0 148 72 236t190 88q58 0 114.5 -31t86.5 -90v147q0 195 -151 195q-105 0 -199 -100l-74 135q60 66 144.5 97.5t165.5 31.5q149 0 228 -79t79 -239v-696h-193v102q-32 -62 -88 -94.5t-113 -32.5q-118 0 -190 90t-72 240zM250 301q0 -83 34.5 -137.5t98.5 -54.5 q99 0 137 106v170q-40 109 -137 109q-65 0 -99 -54.5t-34 -138.5zM293 1139l162 295h174l-211 -295h-125z" />
<glyph unicode="&#xe2;" horiz-adv-x="815" d="M57 305q0 148 72 236t190 88q58 0 114.5 -31t86.5 -90v147q0 195 -151 195q-105 0 -199 -100l-74 135q60 66 144.5 97.5t165.5 31.5q149 0 228 -79t79 -239v-696h-193v102q-32 -62 -88 -94.5t-113 -32.5q-118 0 -190 90t-72 240zM190 1139l132 295h178l135 -295h-109 l-116 200l-109 -200h-111zM250 301q0 -83 34.5 -137.5t98.5 -54.5q99 0 137 106v170q-40 109 -137 109q-65 0 -99 -54.5t-34 -138.5z" />
<glyph unicode="&#xe3;" horiz-adv-x="815" d="M57 305q0 148 72 236t190 88q58 0 114.5 -31t86.5 -90v147q0 195 -151 195q-105 0 -199 -100l-74 135q60 66 144.5 97.5t165.5 31.5q149 0 228 -79t79 -239v-696h-193v102q-32 -62 -88 -94.5t-113 -32.5q-118 0 -190 90t-72 240zM160 1147q0 122 42.5 198t121.5 76 q37 0 63.5 -26.5t37.5 -58.5t28 -58.5t39 -26.5q63 0 63 158h102q0 -123 -41 -198.5t-120 -75.5q-31 0 -53.5 17.5t-35.5 42.5t-24 50t-24.5 42.5t-30.5 17.5q-66 0 -66 -158h-102zM250 301q0 -83 34.5 -137.5t98.5 -54.5q99 0 137 106v170q-40 109 -137 109 q-65 0 -99 -54.5t-34 -138.5z" />
<glyph unicode="&#xe4;" horiz-adv-x="815" d="M57 305q0 148 72 236t190 88q58 0 114.5 -31t86.5 -90v147q0 195 -151 195q-105 0 -199 -100l-74 135q60 66 144.5 97.5t165.5 31.5q149 0 228 -79t79 -239v-696h-193v102q-32 -62 -88 -94.5t-113 -32.5q-118 0 -190 90t-72 240zM141 1243q0 44 33.5 76.5t77.5 32.5 q46 0 78 -32t32 -77q0 -46 -32 -78t-78 -32q-45 0 -78 32.5t-33 77.5zM250 301q0 -83 34.5 -137.5t98.5 -54.5q99 0 137 106v170q-40 109 -137 109q-65 0 -99 -54.5t-34 -138.5zM457 1243q0 45 32.5 77t77.5 32q44 0 77.5 -32.5t33.5 -76.5q0 -45 -33 -77.5t-78 -32.5 q-46 0 -78 32t-32 78z" />
<glyph unicode="&#xe5;" horiz-adv-x="815" d="M57 305q0 148 72 236t190 88q58 0 114.5 -31t86.5 -90v147q0 195 -151 195q-105 0 -199 -100l-74 135q60 66 144.5 97.5t165.5 31.5q149 0 228 -79t79 -239v-696h-193v102q-32 -62 -88 -94.5t-113 -32.5q-118 0 -190 90t-72 240zM231 1292q0 73 52.5 125.5t126.5 52.5 q72 0 123 -52t51 -126q0 -72 -51 -124t-123 -52q-73 0 -126 52t-53 124zM250 301q0 -83 34.5 -137.5t98.5 -54.5q99 0 137 106v170q-40 109 -137 109q-65 0 -99 -54.5t-34 -138.5zM322 1292q0 -35 25.5 -60.5t62.5 -25.5q35 0 60.5 25.5t25.5 60.5q0 37 -25.5 62.5 t-60.5 25.5q-37 0 -62.5 -25.5t-25.5 -62.5z" />
<glyph unicode="&#xe6;" horiz-adv-x="1251" d="M57 299q0 150 72 240t190 90q57 0 113 -31t88 -90v147q0 195 -151 195q-105 0 -199 -100l-74 135q60 66 144.5 97.5t165.5 31.5q97 0 150.5 -35.5t84.5 -99.5q71 135 227 135q85 0 149 -40t102.5 -112t57.5 -163.5t19 -202.5v-64h-491q2 -137 53 -218t149 -81q43 0 87 28 t77 79l98 -105q-53 -76 -126 -118t-154 -42q-100 0 -173.5 49t-119.5 126q-107 -175 -277 -175q-118 0 -190 88t-72 236zM250 301q0 -93 35.5 -142.5t97.5 -49.5q107 0 156 131q-19 88 -19 145q-39 109 -137 109q-62 0 -97.5 -50t-35.5 -143zM705 569h305q0 53 -7 100 t-22.5 91t-47 70t-75.5 26t-76 -27t-48 -72.5t-22.5 -91.5t-6.5 -96z" />
<glyph unicode="&#xe7;" horiz-adv-x="681" d="M63 496q0 229 95.5 373.5t261.5 144.5q140 0 223 -90l-68 -148q-59 68 -124 68q-63 0 -106.5 -49.5t-63 -126t-19.5 -172.5t19.5 -173t63 -127.5t106.5 -50.5q65 0 124 68l68 -147q-65 -75 -178 -89l-33 -83q26 20 60 20q48 0 81 -38.5t33 -98.5q0 -74 -54 -121t-136 -47 q-94 0 -168 63l41 84q64 -55 123 -55q38 0 64 22t26 56q0 28 -14 44.5t-39 16.5q-33 0 -56 -26l-76 43l45 125q-142 24 -220.5 164.5t-78.5 349.5z" />
<glyph unicode="&#xe8;" horiz-adv-x="800" d="M63 496q0 147 37 262t117.5 185.5t194.5 70.5q87 0 152 -39.5t104 -110.5t58 -162t19 -202v-68h-493q2 -136 53.5 -217.5t149.5 -81.5q43 0 86 28t77 79l101 -105q-55 -76 -128.5 -118t-154.5 -42q-180 0 -276.5 143.5t-96.5 377.5zM197 1434h174l161 -295h-124zM252 569 h305q0 54 -6.5 100.5t-22.5 90.5t-47 70t-75 26t-75.5 -27.5t-48 -72.5t-23.5 -91t-7 -96z" />
<glyph unicode="&#xe9;" horiz-adv-x="800" d="M63 496q0 147 37 262t117.5 185.5t194.5 70.5q87 0 152 -39.5t104 -110.5t58 -162t19 -202v-68h-493q2 -136 53.5 -217.5t149.5 -81.5q43 0 86 28t77 79l101 -105q-55 -76 -128.5 -118t-154.5 -42q-180 0 -276.5 143.5t-96.5 377.5zM252 569h305q0 54 -6.5 100.5 t-22.5 90.5t-47 70t-75 26t-75.5 -27.5t-48 -72.5t-23.5 -91t-7 -96zM297 1139l162 295h174l-211 -295h-125z" />
<glyph unicode="&#xea;" horiz-adv-x="800" d="M63 496q0 147 37 262t117.5 185.5t194.5 70.5q87 0 152 -39.5t104 -110.5t58 -162t19 -202v-68h-493q2 -136 53.5 -217.5t149.5 -81.5q43 0 86 28t77 79l101 -105q-55 -76 -128.5 -118t-154.5 -42q-180 0 -276.5 143.5t-96.5 377.5zM186 1139l131 295h179l135 -295h-109 l-116 200l-109 -200h-111zM252 569h305q0 54 -6.5 100.5t-22.5 90.5t-47 70t-75 26t-75.5 -27.5t-48 -72.5t-23.5 -91t-7 -96z" />
<glyph unicode="&#xeb;" horiz-adv-x="800" d="M63 496q0 147 37 262t117.5 185.5t194.5 70.5q87 0 152 -39.5t104 -110.5t58 -162t19 -202v-68h-493q2 -136 53.5 -217.5t149.5 -81.5q43 0 86 28t77 79l101 -105q-55 -76 -128.5 -118t-154.5 -42q-180 0 -276.5 143.5t-96.5 377.5zM137 1243q0 44 33.5 76.5t77.5 32.5 q46 0 78 -32t32 -77q0 -46 -32 -78t-78 -32q-45 0 -78 32.5t-33 77.5zM252 569h305q0 54 -6.5 100.5t-22.5 90.5t-47 70t-75 26t-75.5 -27.5t-48 -72.5t-23.5 -91t-7 -96zM453 1243q0 45 32.5 77t77.5 32q44 0 77.5 -32.5t33.5 -76.5q0 -45 -33 -77.5t-78 -32.5 q-46 0 -78 32t-32 78z" />
<glyph unicode="&#xec;" horiz-adv-x="397" d="M-18 1434h174l161 -295h-124zM102 0v989h193v-989h-193z" />
<glyph unicode="&#xed;" horiz-adv-x="397" d="M80 1139l162 295h174l-211 -295h-125zM102 0v989h193v-989h-193z" />
<glyph unicode="&#xee;" horiz-adv-x="397" d="M-23 1139l132 295h178l135 -295h-109l-116 200l-109 -200h-111zM102 0v989h193v-989h-193z" />
<glyph unicode="&#xef;" horiz-adv-x="397" d="M-70 1243q0 44 33.5 76.5t77.5 32.5q46 0 78.5 -32.5t32.5 -76.5q0 -46 -32.5 -78t-78.5 -32q-45 0 -78 32.5t-33 77.5zM102 0v989h193v-989h-193zM246 1243q0 45 32 77t78 32q44 0 77.5 -32.5t33.5 -76.5q0 -45 -33 -77.5t-78 -32.5q-46 0 -78 32t-32 78z" />
<glyph unicode="&#xf0;" d="M63 473q0 135 31 244t100 179.5t166 70.5q124 0 183 -133q-24 131 -86 284l-193 -86l-45 96l195 86q-47 96 -70 132l170 79q38 -65 72 -135l137 62l41 -95l-135 -61q129 -315 129 -655q0 -260 -85 -413t-261 -153q-89 0 -157.5 40.5t-109.5 111.5t-61.5 158t-20.5 188z M264 473q0 -67 7 -122.5t23.5 -103.5t46.5 -75t71 -27t71 27t46 75t23 103.5t7 122.5q0 66 -7 120.5t-23 102t-46 74.5t-71 27t-71 -27t-46.5 -74.5t-23.5 -102t-7 -120.5z" />
<glyph unicode="&#xf1;" d="M102 0v989h193v-133q32 64 97 111t130 47q199 0 199 -221v-793h-193v729q0 115 -84 115q-46 0 -86.5 -42.5t-62.5 -101.5v-700h-193zM166 1147q0 122 42.5 198t121.5 76q37 0 63.5 -26.5t37.5 -58.5t28 -58.5t39 -26.5q63 0 63 158h103q0 -122 -41.5 -198t-120.5 -76 q-31 0 -53.5 17.5t-35.5 42.5t-24 50t-24.5 42.5t-30.5 17.5q-66 0 -66 -158h-102z" />
<glyph unicode="&#xf2;" d="M63 496q0 105 20.5 196t61.5 164.5t109.5 115.5t157.5 42q72 0 130.5 -28t98 -76t66.5 -114.5t39 -141t12 -158.5t-12 -159t-39 -142t-66.5 -115.5t-98 -76.5t-130.5 -28q-89 0 -157.5 42.5t-109.5 116.5t-61.5 165.5t-20.5 196.5zM195 1434h174l161 -295h-124zM264 496 q0 -351 148 -351q147 0 147 351q0 348 -147 348q-148 0 -148 -348z" />
<glyph unicode="&#xf3;" d="M63 496q0 105 20.5 196t61.5 164.5t109.5 115.5t157.5 42q72 0 130.5 -28t98 -76t66.5 -114.5t39 -141t12 -158.5t-12 -159t-39 -142t-66.5 -115.5t-98 -76.5t-130.5 -28q-89 0 -157.5 42.5t-109.5 116.5t-61.5 165.5t-20.5 196.5zM264 496q0 -351 148 -351 q147 0 147 351q0 348 -147 348q-148 0 -148 -348zM295 1139l162 295h174l-211 -295h-125z" />
<glyph unicode="&#xf4;" d="M63 496q0 105 20.5 196t61.5 164.5t109.5 115.5t157.5 42q72 0 130.5 -28t98 -76t66.5 -114.5t39 -141t12 -158.5t-12 -159t-39 -142t-66.5 -115.5t-98 -76.5t-130.5 -28q-89 0 -157.5 42.5t-109.5 116.5t-61.5 165.5t-20.5 196.5zM190 1139l132 295h178l135 -295h-109 l-116 200l-109 -200h-111zM264 496q0 -351 148 -351q147 0 147 351q0 348 -147 348q-148 0 -148 -348z" />
<glyph unicode="&#xf5;" d="M63 496q0 105 20.5 196t61.5 164.5t109.5 115.5t157.5 42q72 0 130.5 -28t98 -76t66.5 -114.5t39 -141t12 -158.5t-12 -159t-39 -142t-66.5 -115.5t-98 -76.5t-130.5 -28q-89 0 -157.5 42.5t-109.5 116.5t-61.5 165.5t-20.5 196.5zM162 1147q0 122 42.5 198t121.5 76 q37 0 63.5 -26.5t37.5 -58.5t28 -58.5t39 -26.5q63 0 63 158h102q0 -123 -41 -198.5t-120 -75.5q-31 0 -53.5 17.5t-35.5 42.5t-24 50t-24.5 42.5t-30.5 17.5q-66 0 -66 -158h-102zM264 496q0 -351 148 -351q147 0 147 351q0 348 -147 348q-148 0 -148 -348z" />
<glyph unicode="&#xf6;" d="M63 496q0 105 20.5 196t61.5 164.5t109.5 115.5t157.5 42q72 0 130.5 -28t98 -76t66.5 -114.5t39 -141t12 -158.5t-12 -159t-39 -142t-66.5 -115.5t-98 -76.5t-130.5 -28q-89 0 -157.5 42.5t-109.5 116.5t-61.5 165.5t-20.5 196.5zM143 1243q0 44 33.5 76.5t77.5 32.5 q46 0 78.5 -32.5t32.5 -76.5q0 -46 -32.5 -78t-78.5 -32q-45 0 -78 32.5t-33 77.5zM264 496q0 -351 148 -351q147 0 147 351q0 348 -147 348q-148 0 -148 -348zM459 1243q0 45 32.5 77t77.5 32q44 0 77.5 -32.5t33.5 -76.5q0 -45 -33 -77.5t-78 -32.5q-46 0 -78 32t-32 78z " />
<glyph unicode="&#xf7;" horiz-adv-x="765" d="M59 627v127h648v-127h-648zM281 391q0 44 30.5 75.5t73.5 31.5t73.5 -31.5t30.5 -75.5q0 -43 -30.5 -73.5t-73.5 -30.5t-73.5 30.5t-30.5 73.5zM281 983q0 43 30.5 73.5t73.5 30.5t73.5 -30.5t30.5 -73.5t-30.5 -74.5t-73.5 -31.5t-73.5 31.5t-30.5 74.5z" />
<glyph unicode="&#xf8;" d="M63 496q0 105 20.5 196t61.5 164.5t109.5 115.5t157.5 42q112 0 192 -70l27 45h112l-69 -127q84 -141 84 -366q0 -84 -12 -159t-39 -142t-66.5 -115.5t-98 -76.5t-130.5 -28q-116 0 -193 68l-24 -43h-115l70 125q-87 142 -87 371zM264 496q0 -87 8 -150l240 430 q-38 68 -100 68q-148 0 -148 -348zM311 211q37 -66 101 -66q147 0 147 351q0 85 -8 145z" />
<glyph unicode="&#xf9;" d="M102 195v794h193v-731q0 -113 84 -113q47 0 87 40.5t62 99.5v704h193v-989h-193v129q-32 -65 -95 -109.5t-132 -44.5q-104 0 -151.5 55t-47.5 165zM197 1434h174l161 -295h-124z" />
<glyph unicode="&#xfa;" d="M102 195v794h193v-731q0 -113 84 -113q47 0 87 40.5t62 99.5v704h193v-989h-193v129q-32 -65 -95 -109.5t-132 -44.5q-104 0 -151.5 55t-47.5 165zM295 1139l162 295h174l-211 -295h-125z" />
<glyph unicode="&#xfb;" d="M102 195v794h193v-731q0 -113 84 -113q47 0 87 40.5t62 99.5v704h193v-989h-193v129q-32 -65 -95 -109.5t-132 -44.5q-104 0 -151.5 55t-47.5 165zM190 1139l132 295h178l135 -295h-109l-116 200l-109 -200h-111z" />
<glyph unicode="&#xfc;" d="M102 195v794h193v-731q0 -113 84 -113q47 0 87 40.5t62 99.5v704h193v-989h-193v129q-32 -65 -95 -109.5t-132 -44.5q-104 0 -151.5 55t-47.5 165zM147 1243q0 44 33.5 76.5t77.5 32.5q46 0 78.5 -32.5t32.5 -76.5q0 -46 -32.5 -78t-78.5 -32q-45 0 -78 32.5t-33 77.5z M463 1243q0 45 32.5 77t77.5 32q44 0 77.5 -32.5t33.5 -76.5q0 -45 -33 -77.5t-78 -32.5q-46 0 -78 32t-32 78z" />
<glyph unicode="&#xfd;" horiz-adv-x="731" d="M10 989h205l150 -745l153 745h203l-303 -1182q-33 -119 -88.5 -163.5t-153.5 -44.5q-65 0 -100 14l28 168q21 -12 48 -12q34 0 53 18t31 61l32 125zM248 1139l162 295h174l-211 -295h-125z" />
<glyph unicode="&#xfe;" horiz-adv-x="831" d="M102 -377v1743h193v-498q31 72 81 109t109 37q139 0 211 -139t72 -379q0 -237 -72.5 -379t-210.5 -142q-58 0 -109.5 36.5t-80.5 111.5v-500h-193zM295 285q18 -58 55 -99t78 -41q141 0 141 351q0 348 -141 348q-42 0 -78.5 -39t-54.5 -98v-422z" />
<glyph unicode="&#xff;" horiz-adv-x="731" d="M10 989h205l150 -745l153 745h203l-303 -1182q-33 -119 -88.5 -163.5t-153.5 -44.5q-65 0 -100 14l28 168q21 -12 48 -12q34 0 53 18t31 61l32 125zM96 1243q0 44 33.5 76.5t77.5 32.5q45 0 77.5 -32t32.5 -77q0 -46 -32 -78t-78 -32q-45 0 -78 32.5t-33 77.5zM412 1243 q0 45 32 77t78 32q44 0 77.5 -32.5t33.5 -76.5q0 -45 -33 -77.5t-78 -32.5q-46 0 -78 32t-32 78z" />
<glyph unicode="&#x152;" horiz-adv-x="1261" d="M74 682q0 154 20 278.5t61 221.5t111 150.5t164 53.5q56 0 110.5 -32t88.5 -105v117h559v-188h-344v-387h330v-189h-330v-414h344v-188h-559v117q-34 -75 -88.5 -108.5t-110.5 -33.5q-94 0 -164 54t-111 152t-61 223t-20 278zM293 682q0 -516 178 -516q54 0 95 55.5 t63 157.5v606q-22 102 -63 156.5t-95 54.5q-178 0 -178 -514z" />
<glyph unicode="&#x153;" horiz-adv-x="1294" d="M63 496q0 105 20.5 196t61.5 164.5t109.5 115.5t157.5 42q167 0 247 -195q78 195 246 195q87 0 153 -40t104.5 -112t57.5 -163.5t19 -202.5v-64h-491q2 -136 52 -217.5t148 -81.5q45 0 88.5 28t75.5 79l100 -105q-53 -76 -126 -118t-154 -42q-100 0 -164 50.5t-106 150.5 q-81 -201 -250 -201q-89 0 -157.5 42.5t-109.5 116.5t-61.5 165.5t-20.5 196.5zM264 496q0 -351 148 -351q147 0 147 351q0 348 -147 348q-148 0 -148 -348zM748 569h305q0 53 -7 100t-22.5 91t-47 70t-75.5 26t-75.5 -27.5t-47.5 -72.5t-23 -91t-7 -96z" />
<glyph unicode="&#x178;" horiz-adv-x="829" d="M-6 1366h229l193 -584l194 584h226l-314 -795v-571h-213v571zM152 1593q0 44 33 76.5t77 32.5q46 0 78.5 -32.5t32.5 -76.5q0 -46 -32.5 -78t-78.5 -32q-45 0 -77.5 32.5t-32.5 77.5zM467 1593q0 44 32.5 76.5t78.5 32.5q44 0 77 -32.5t33 -76.5q0 -45 -32.5 -77.5 t-77.5 -32.5q-46 0 -78.5 32t-32.5 78z" />
<glyph unicode="&#x2c6;" horiz-adv-x="444" d="M0 1139l131 295h178l135 -295h-108l-117 200l-108 -200h-111z" />
<glyph unicode="&#x2dc;" horiz-adv-x="497" d="M0 1147q0 122 42.5 198t121.5 76q37 0 63.5 -26.5t37.5 -58.5t28 -58.5t39 -26.5q63 0 63 158h103q0 -122 -41.5 -198t-120.5 -76q-31 0 -53.5 17.5t-35.5 42.5t-24 50t-24.5 42.5t-30.5 17.5q-66 0 -66 -158h-102z" />
<glyph unicode="&#x2000;" horiz-adv-x="893" />
<glyph unicode="&#x2001;" horiz-adv-x="1786" />
<glyph unicode="&#x2002;" horiz-adv-x="893" />
<glyph unicode="&#x2003;" horiz-adv-x="1786" />
<glyph unicode="&#x2004;" horiz-adv-x="595" />
<glyph unicode="&#x2005;" horiz-adv-x="446" />
<glyph unicode="&#x2006;" horiz-adv-x="297" />
<glyph unicode="&#x2007;" horiz-adv-x="297" />
<glyph unicode="&#x2008;" horiz-adv-x="223" />
<glyph unicode="&#x2009;" horiz-adv-x="357" />
<glyph unicode="&#x200a;" horiz-adv-x="99" />
<glyph unicode="&#x2010;" horiz-adv-x="489" d="M61 412v168h365v-168h-365z" />
<glyph unicode="&#x2011;" horiz-adv-x="489" d="M61 412v168h365v-168h-365z" />
<glyph unicode="&#x2012;" horiz-adv-x="489" d="M61 412v168h365v-168h-365z" />
<glyph unicode="&#x2013;" horiz-adv-x="942" d="M61 412v168h820v-168h-820z" />
<glyph unicode="&#x2014;" horiz-adv-x="1310" d="M61 412v168h1188v-168h-1188z" />
<glyph unicode="&#x2018;" horiz-adv-x="493" d="M104 1055q0 98 50.5 185.5t132.5 145.5l90 -71q-51 -32 -93 -87t-51 -106q18 6 33 6q48 0 80.5 -34t32.5 -86q0 -53 -37.5 -91t-91.5 -38q-61 0 -103.5 47t-42.5 129z" />
<glyph unicode="&#x2019;" horiz-adv-x="493" d="M113 1257q0 53 37.5 91t91.5 38q61 0 103 -47t42 -129q0 -98 -50 -186t-132 -145l-88 71q51 31 91.5 86t49.5 107q-12 -6 -31 -6q-50 0 -82 34t-32 86z" />
<glyph unicode="&#x201a;" horiz-adv-x="493" d="M113 113q0 53 37.5 91t91.5 38q61 0 103 -47t42 -129q0 -98 -50 -186.5t-132 -145.5l-88 71q51 31 91.5 86t49.5 107q-8 -4 -31 -4q-50 0 -82 33.5t-32 85.5z" />
<glyph unicode="&#x201c;" horiz-adv-x="851" d="M106 1055q0 98 50 185.5t131 145.5l90 -71q-51 -31 -91.5 -86t-49.5 -107q12 6 30 6q48 0 80.5 -34t32.5 -86q0 -53 -37 -91t-90 -38q-61 0 -103.5 47t-42.5 129zM465 1055q0 98 50.5 185.5t131.5 145.5l90 -71q-51 -32 -92.5 -87t-48.5 -106q12 6 31 6q48 0 80 -34 t32 -86q0 -53 -37.5 -91t-89.5 -38q-62 0 -104.5 47.5t-42.5 128.5z" />
<glyph unicode="&#x201d;" horiz-adv-x="851" d="M113 1257q0 53 37.5 91t91.5 38q61 0 103 -47t42 -129q0 -98 -50 -186t-132 -145l-88 71q51 31 91.5 86t49.5 107q-12 -6 -31 -6q-50 0 -82 34t-32 86zM473 1257q0 53 37.5 91t91.5 38q61 0 103.5 -47t42.5 -129q0 -98 -50.5 -185.5t-132.5 -145.5l-90 71q51 32 92.5 87 t48.5 106q-12 -6 -30 -6q-48 0 -80.5 34t-32.5 86z" />
<glyph unicode="&#x201e;" horiz-adv-x="851" d="M113 113q0 53 37.5 91t91.5 38q61 0 103 -47t42 -129q0 -98 -50 -186.5t-132 -145.5l-88 71q51 31 91.5 86t49.5 107q-8 -4 -31 -4q-50 0 -82 33.5t-32 85.5zM473 113q0 53 37.5 91t91.5 38q61 0 103.5 -47t42.5 -129q0 -98 -50.5 -186.5t-132.5 -145.5l-90 71 q51 32 92.5 87t48.5 106q-8 -4 -30 -4q-48 0 -80.5 33.5t-32.5 85.5z" />
<glyph unicode="&#x2022;" horiz-adv-x="733" d="M139 496q0 95 67.5 162t162.5 67t162 -67t67 -162q0 -94 -67 -161t-162 -67t-162.5 67t-67.5 161z" />
<glyph unicode="&#x2026;" horiz-adv-x="1468" d="M113 111q0 54 38.5 92.5t92.5 38.5q55 0 94 -38.5t39 -92.5t-39 -94t-94 -40q-54 0 -92.5 40t-38.5 94zM602 111q0 54 38.5 92.5t92.5 38.5q55 0 94 -38.5t39 -92.5t-39 -94t-94 -40q-54 0 -92.5 40t-38.5 94zM1092 111q0 54 38.5 92.5t92.5 38.5q55 0 94 -38.5t39 -92.5 t-39 -94t-94 -40q-54 0 -92.5 40t-38.5 94z" />
<glyph unicode="&#x202f;" horiz-adv-x="357" />
<glyph unicode="&#x2039;" horiz-adv-x="460" d="M61 498l185 362h153l-184 -362l184 -369h-153z" />
<glyph unicode="&#x203a;" horiz-adv-x="460" d="M61 129l185 369l-185 362h154l184 -362l-184 -369h-154z" />
<glyph unicode="&#x205f;" horiz-adv-x="446" />
<glyph unicode="&#x20ac;" horiz-adv-x="874" d="M31 477v125h75q-2 25 -2 80t2 84h-75v127h86q28 230 124 363t261 133q58 0 106 -18t80 -45.5t58.5 -69.5t42 -79t30.5 -85l-172 -64q-26 87 -57.5 128.5t-87.5 41.5q-138 0 -168 -305h221v-127h-231v-84v-80h231v-125h-223q33 -311 170 -311q63 0 96.5 53.5t50.5 149.5 l174 -64q-79 -330 -321 -330q-166 0 -262 134t-125 368h-84z" />
<glyph unicode="&#x2122;" horiz-adv-x="765" d="M35 1313v53h229v-53h-86v-398h-57v398h-86zM338 915v451h88l90 -322l90 322h88v-451h-57v373l-113 -373h-16l-113 373v-373h-57z" />
<glyph unicode="&#x25fc;" horiz-adv-x="993" d="M0 0v993h993v-993h-993z" />
</font>
</defs>
</svg>
